<svg width="1600" height="628" viewBox="0 0 1600 628" fill="none" xmlns="http://www.w3.org/2000/svg">
<rect width="1600" height="628" fill="white"/>
<path d="M366 365.996C370.05 365.996 373.357 369.191 373.496 373.245L373.5 373.496V377.593L374.88 380.749C374.949 380.907 374.985 381.078 374.985 381.25C374.985 381.94 374.425 382.5 373.735 382.5L369 382.501C369 384.158 367.657 385.501 366 385.501C364.402 385.501 363.096 384.253 363.005 382.678L363 382.499L358.275 382.5C358.104 382.5 357.934 382.465 357.777 382.397C357.144 382.121 356.853 381.385 357.128 380.752L358.5 377.594V373.496C358.501 369.341 361.852 365.996 366 365.996ZM367.5 382.499L364.5 382.501C364.5 383.33 365.172 384.001 366 384.001C366.78 384.001 367.421 383.407 367.493 382.646L367.5 382.499ZM366 367.496C362.68 367.496 360.001 370.17 360 373.496V377.906L358.656 381H373.353L372 377.907L372 373.509L371.996 373.284C371.885 370.05 369.242 367.496 366 367.496Z" fill="#242424"/>
<path d="M242 365.996C246.05 365.996 249.357 369.191 249.496 373.245L249.5 373.496V377.593L250.88 380.749C250.949 380.907 250.985 381.078 250.985 381.25C250.985 381.94 250.425 382.5 249.735 382.5L245 382.501C245 384.158 243.657 385.501 242 385.501C240.402 385.501 239.096 384.253 239.005 382.678L239 382.499L234.275 382.5C234.104 382.5 233.934 382.465 233.777 382.397C233.144 382.121 232.853 381.385 233.128 380.752L234.5 377.594V373.496C234.501 369.341 237.852 365.996 242 365.996ZM243.5 382.499L240.5 382.501C240.5 383.33 241.172 384.001 242 384.001C242.78 384.001 243.421 383.407 243.493 382.646L243.5 382.499ZM242 367.496C238.68 367.496 236.001 370.17 236 373.496V377.906L234.656 381H249.353L248 377.907L248 373.509L247.996 373.284C247.885 370.05 245.242 367.496 242 367.496Z" fill="#242424"/>
<path d="M863.263 369.439L855.053 378.129C854.743 378.459 854.443 379.109 854.383 379.559L854.013 382.799C853.883 383.969 854.723 384.769 855.883 384.569L859.103 384.019C859.553 383.939 860.183 383.609 860.493 383.269L868.703 374.579C870.123 373.079 870.763 371.369 868.553 369.279C866.353 367.209 864.683 367.939 863.263 369.439Z" stroke="#242424" stroke-width="1.5" stroke-miterlimit="10" stroke-linecap="round" stroke-linejoin="round"/>
<path d="M861.895 370.891C862.325 373.651 864.565 375.761 867.345 376.041" stroke="#242424" stroke-width="1.5" stroke-miterlimit="10" stroke-linecap="round" stroke-linejoin="round"/>
<path d="M605 247H623" stroke="#242424" stroke-width="1.5" stroke-linecap="round"/>
<path d="M608 252H620" stroke="#242424" stroke-width="1.5" stroke-linecap="round"/>
<path d="M612 257H616" stroke="#242424" stroke-width="1.5" stroke-linecap="round"/>
<path d="M114.5 259H114C110 259 108 258 108 253V248C108 244 110 242 114 242H122C126 242 128 244 128 248V253C128 257 126 259 122 259H121.5C121.19 259 120.89 259.15 120.7 259.4L119.2 261.4C118.54 262.28 117.46 262.28 116.8 261.4L115.3 259.4C115.14 259.18 114.77 259 114.5 259Z" stroke="#242424" stroke-width="1.5" stroke-miterlimit="10" stroke-linecap="round" stroke-linejoin="round"/>
<path d="M113 248H123" stroke="#242424" stroke-width="1.5" stroke-linecap="round" stroke-linejoin="round"/>
<path d="M113 253H119" stroke="#242424" stroke-width="1.5" stroke-linecap="round" stroke-linejoin="round"/>
<path d="M1111 249H1105" stroke="#242424" stroke-width="1.5" stroke-linecap="round" stroke-linejoin="round"/>
<path d="M1120 250.97V253.03C1120 253.58 1119.56 254.03 1119 254.05H1117.04C1115.96 254.05 1114.97 253.26 1114.88 252.18C1114.82 251.55 1115.06 250.96 1115.48 250.55C1115.85 250.17 1116.36 249.95 1116.92 249.95H1119C1119.56 249.97 1120 250.42 1120 250.97Z" stroke="#242424" stroke-width="1.5" stroke-linecap="round" stroke-linejoin="round"/>
<path d="M1115.48 250.55C1115.06 250.96 1114.82 251.55 1114.88 252.18C1114.97 253.26 1115.96 254.05 1117.04 254.05H1119V255.5C1119 258.5 1117 260.5 1114 260.5H1105C1102 260.5 1100 258.5 1100 255.5V248.5C1100 245.78 1101.64 243.88 1104.19 243.56C1104.45 243.52 1104.72 243.5 1105 243.5H1114C1114.26 243.5 1114.51 243.51 1114.75 243.55C1117.33 243.85 1119 245.76 1119 248.5V249.95H1116.92C1116.36 249.95 1115.85 250.17 1115.48 250.55Z" stroke="#242424" stroke-width="1.5" stroke-linecap="round" stroke-linejoin="round"/>
<path d="M1354 242V245" stroke="#242424" stroke-width="1.5" stroke-miterlimit="10" stroke-linecap="round" stroke-linejoin="round"/>
<path d="M1362 242V245" stroke="#242424" stroke-width="1.5" stroke-miterlimit="10" stroke-linecap="round" stroke-linejoin="round"/>
<path d="M1349.5 249.09H1366.5" stroke="#242424" stroke-width="1.5" stroke-miterlimit="10" stroke-linecap="round" stroke-linejoin="round"/>
<path d="M1367 248.5V257C1367 260 1365.5 262 1362 262H1354C1350.5 262 1349 260 1349 257V248.5C1349 245.5 1350.5 243.5 1354 243.5H1362C1365.5 243.5 1367 245.5 1367 248.5Z" stroke="#242424" stroke-width="1.5" stroke-miterlimit="10" stroke-linecap="round" stroke-linejoin="round"/>
<path d="M1358 253.7H1358" stroke="#242424" stroke-width="2" stroke-linecap="round" stroke-linejoin="round"/>
<path d="M1354.29 253.7H1354.3" stroke="#242424" stroke-width="2" stroke-linecap="round" stroke-linejoin="round"/>
<path d="M1354.29 256.7H1354.3" stroke="#242424" stroke-width="2" stroke-linecap="round" stroke-linejoin="round"/>
<path d="M114 490V493" stroke="#242424" stroke-width="1.5" stroke-miterlimit="10" stroke-linecap="round" stroke-linejoin="round"/>
<path d="M122 490V493" stroke="#242424" stroke-width="1.5" stroke-miterlimit="10" stroke-linecap="round" stroke-linejoin="round"/>
<path d="M109.5 497.09H126.5" stroke="#242424" stroke-width="1.5" stroke-miterlimit="10" stroke-linecap="round" stroke-linejoin="round"/>
<path d="M124 511C126.209 511 128 509.209 128 507C128 504.791 126.209 503 124 503C121.791 503 120 504.791 120 507C120 509.209 121.791 511 124 511Z" stroke="#242424" stroke-width="1.5" stroke-miterlimit="10" stroke-linecap="round" stroke-linejoin="round"/>
<path d="M125.069 508.11L122.949 506" stroke="#242424" stroke-width="1.5" stroke-miterlimit="10" stroke-linecap="round" stroke-linejoin="round"/>
<path d="M125.05 506.02L122.93 508.14" stroke="#242424" stroke-width="1.5" stroke-miterlimit="10" stroke-linecap="round" stroke-linejoin="round"/>
<path d="M127 496.5V504.36C126.27 503.53 125.2 503 124 503C121.79 503 120 504.79 120 507C120 507.75 120.21 508.46 120.58 509.06C120.79 509.42 121.06 509.74 121.37 510H114C110.5 510 109 508 109 505V496.5C109 493.5 110.5 491.5 114 491.5H122C125.5 491.5 127 493.5 127 496.5Z" stroke="#242424" stroke-width="1.5" stroke-miterlimit="10" stroke-linecap="round" stroke-linejoin="round"/>
<path d="M117.995 501.7H118.004" stroke="#242424" stroke-width="2" stroke-linecap="round" stroke-linejoin="round"/>
<path d="M114.294 501.7H114.303" stroke="#242424" stroke-width="2" stroke-linecap="round" stroke-linejoin="round"/>
<path d="M114.294 504.7H114.303" stroke="#242424" stroke-width="2" stroke-linecap="round" stroke-linejoin="round"/>
<path d="M238 490V493" stroke="#242424" stroke-width="1.5" stroke-miterlimit="10" stroke-linecap="round" stroke-linejoin="round"/>
<path d="M246 490V493" stroke="#242424" stroke-width="1.5" stroke-miterlimit="10" stroke-linecap="round" stroke-linejoin="round"/>
<path d="M233.5 497.09H250.5" stroke="#242424" stroke-width="1.5" stroke-miterlimit="10" stroke-linecap="round" stroke-linejoin="round"/>
<path d="M252 507C252 507.75 251.79 508.46 251.42 509.06C250.73 510.22 249.46 511 248 511C246.99 511 246.07 510.63 245.37 510C245.06 509.74 244.79 509.42 244.58 509.06C244.21 508.46 244 507.75 244 507C244 504.79 245.79 503 248 503C249.2 503 250.27 503.53 251 504.36C251.62 505.07 252 505.99 252 507Z" stroke="#242424" stroke-width="1.5" stroke-miterlimit="10" stroke-linecap="round" stroke-linejoin="round"/>
<path d="M246.44 507L247.43 507.99L249.56 506.02" stroke="#242424" stroke-width="1.5" stroke-linecap="round" stroke-linejoin="round"/>
<path d="M251 496.5V504.36C250.27 503.53 249.2 503 248 503C245.79 503 244 504.79 244 507C244 507.75 244.21 508.46 244.58 509.06C244.79 509.42 245.06 509.74 245.37 510H238C234.5 510 233 508 233 505V496.5C233 493.5 234.5 491.5 238 491.5H246C249.5 491.5 251 493.5 251 496.5Z" stroke="#242424" stroke-width="1.5" stroke-miterlimit="10" stroke-linecap="round" stroke-linejoin="round"/>
<path d="M241.995 501.7H242.004" stroke="#242424" stroke-width="2" stroke-linecap="round" stroke-linejoin="round"/>
<path d="M238.294 501.7H238.303" stroke="#242424" stroke-width="2" stroke-linecap="round" stroke-linejoin="round"/>
<path d="M238.294 504.7H238.303" stroke="#242424" stroke-width="2" stroke-linecap="round" stroke-linejoin="round"/>
<path d="M1106.5 135H1106C1102 135 1100 134 1100 129V124C1100 120 1102 118 1106 118H1114C1118 118 1120 120 1120 124V129C1120 133 1118 135 1114 135H1113.5C1113.19 135 1112.89 135.15 1112.7 135.4L1111.2 137.4C1110.54 138.28 1109.46 138.28 1108.8 137.4L1107.3 135.4C1107.14 135.18 1106.77 135 1106.5 135Z" stroke="#242424" stroke-width="1.5" stroke-miterlimit="10" stroke-linecap="round" stroke-linejoin="round"/>
<path d="M1105 124H1115" stroke="#242424" stroke-width="1.5" stroke-linecap="round" stroke-linejoin="round"/>
<path d="M1105 129H1111" stroke="#242424" stroke-width="1.5" stroke-linecap="round" stroke-linejoin="round"/>
<path d="M1479.02 118.84L1473.63 123.04C1472.73 123.74 1472 125.23 1472 126.36V133.77C1472 136.09 1473.89 137.99 1476.21 137.99H1487.79C1490.11 137.99 1492 136.09 1492 133.78V126.5C1492 125.29 1491.19 123.74 1490.2 123.05L1484.02 118.72C1482.62 117.74 1480.37 117.79 1479.02 118.84Z" stroke="#242424" stroke-width="1.5" stroke-linecap="round" stroke-linejoin="round"/>
<path d="M1482 133.99V130.99" stroke="#242424" stroke-width="1.5" stroke-linecap="round" stroke-linejoin="round"/>
<path d="M613.5 137C618.747 137 623 132.747 623 127.5C623 122.253 618.747 118 613.5 118C608.253 118 604 122.253 604 127.5C604 132.747 608.253 137 613.5 137Z" stroke="#242424" stroke-width="1.5" stroke-linecap="round" stroke-linejoin="round"/>
<path d="M624 138L622 136" stroke="#242424" stroke-width="1.5" stroke-linecap="round" stroke-linejoin="round"/>
<path d="M858 121.75C857.59 121.75 857.25 121.41 857.25 121V118C857.25 117.59 857.59 117.25 858 117.25C858.41 117.25 858.75 117.59 858.75 118V121C858.75 121.41 858.41 121.75 858 121.75Z" fill="#242424"/>
<path d="M866 121.75C865.59 121.75 865.25 121.41 865.25 121V118C865.25 117.59 865.59 117.25 866 117.25C866.41 117.25 866.75 117.59 866.75 118V121C866.75 121.41 866.41 121.75 866 121.75Z" fill="#242424"/>
<path d="M870.5 125.84H853.5C853.09 125.84 852.75 125.5 852.75 125.09C852.75 124.68 853.09 124.34 853.5 124.34H870.5C870.91 124.34 871.25 124.68 871.25 125.09C871.25 125.5 870.91 125.84 870.5 125.84Z" fill="#242424"/>
<path d="M866 138.75H858C854.35 138.75 852.25 136.65 852.25 133V124.5C852.25 120.85 854.35 118.75 858 118.75H866C869.65 118.75 871.75 120.85 871.75 124.5V133C871.75 136.65 869.65 138.75 866 138.75ZM858 120.25C855.14 120.25 853.75 121.64 853.75 124.5V133C853.75 135.86 855.14 137.25 858 137.25H866C868.86 137.25 870.25 135.86 870.25 133V124.5C870.25 121.64 868.86 120.25 866 120.25H858Z" fill="#242424"/>
<path d="M858.5 130.5C858.37 130.5 858.24 130.47 858.12 130.42C858 130.37 857.89 130.3 857.79 130.21C857.7 130.11 857.63 130 857.58 129.88C857.53 129.76 857.5 129.63 857.5 129.5C857.5 129.24 857.61 128.98 857.79 128.79C857.89 128.7 858 128.63 858.12 128.58C858.3 128.5 858.5 128.48 858.7 128.52C858.76 128.53 858.82 128.55 858.88 128.58C858.94 128.6 859 128.63 859.06 128.67C859.11 128.71 859.16 128.75 859.21 128.79C859.25 128.84 859.3 128.89 859.33 128.94C859.37 129 859.4 129.06 859.42 129.12C859.45 129.18 859.47 129.24 859.48 129.3C859.49 129.37 859.5 129.43 859.5 129.5C859.5 129.76 859.39 130.02 859.21 130.21C859.02 130.39 858.76 130.5 858.5 130.5Z" fill="#242424"/>
<path d="M862 130.5C861.74 130.5 861.48 130.39 861.29 130.21C861.25 130.16 861.21 130.11 861.17 130.06C861.13 130 861.1 129.94 861.08 129.88C861.05 129.82 861.03 129.76 861.02 129.7C861.01 129.63 861 129.57 861 129.5C861 129.37 861.03 129.24 861.08 129.12C861.13 129 861.2 128.89 861.29 128.79C861.57 128.51 862.02 128.42 862.38 128.58C862.51 128.63 862.61 128.7 862.71 128.79C862.89 128.98 863 129.24 863 129.5C863 129.57 862.99 129.63 862.98 129.7C862.97 129.76 862.95 129.82 862.92 129.88C862.9 129.94 862.87 130 862.83 130.06C862.79 130.11 862.75 130.16 862.71 130.21C862.61 130.3 862.51 130.37 862.38 130.42C862.26 130.47 862.13 130.5 862 130.5Z" fill="#242424"/>
<path d="M858.5 134C858.37 134 858.24 133.97 858.12 133.92C858 133.87 857.89 133.8 857.79 133.71C857.7 133.61 857.63 133.51 857.58 133.38C857.53 133.26 857.5 133.13 857.5 133C857.5 132.74 857.61 132.48 857.79 132.29C857.89 132.2 858 132.13 858.12 132.08C858.49 131.92 858.93 132.01 859.21 132.29C859.25 132.34 859.3 132.39 859.33 132.44C859.37 132.5 859.4 132.56 859.42 132.62C859.45 132.68 859.47 132.74 859.48 132.81C859.49 132.87 859.5 132.94 859.5 133C859.5 133.26 859.39 133.52 859.21 133.71C859.02 133.89 858.76 134 858.5 134Z" fill="#242424"/>
<path d="M1244 370.5H1238" stroke="#242424" stroke-width="1.5" stroke-miterlimit="10" stroke-linecap="round" stroke-linejoin="round"/>
<path d="M1228 370.5H1224" stroke="#242424" stroke-width="1.5" stroke-miterlimit="10" stroke-linecap="round" stroke-linejoin="round"/>
<path d="M1232 374C1233.93 374 1235.5 372.433 1235.5 370.5C1235.5 368.567 1233.93 367 1232 367C1230.07 367 1228.5 368.567 1228.5 370.5C1228.5 372.433 1230.07 374 1232 374Z" stroke="#242424" stroke-width="1.5" stroke-miterlimit="10" stroke-linecap="round" stroke-linejoin="round"/>
<path d="M1244 381.5H1240" stroke="#242424" stroke-width="1.5" stroke-miterlimit="10" stroke-linecap="round" stroke-linejoin="round"/>
<path d="M1230 381.5H1224" stroke="#242424" stroke-width="1.5" stroke-miterlimit="10" stroke-linecap="round" stroke-linejoin="round"/>
<path d="M1236 385C1237.93 385 1239.5 383.433 1239.5 381.5C1239.5 379.567 1237.93 378 1236 378C1234.07 378 1232.5 379.567 1232.5 381.5C1232.5 383.433 1234.07 385 1236 385Z" stroke="#242424" stroke-width="1.5" stroke-miterlimit="10" stroke-linecap="round" stroke-linejoin="round"/>
<path d="M245 258L239 252L245 246" stroke="#242424" stroke-width="2" stroke-linecap="round" stroke-linejoin="round"/>
<path d="M735 258L741 252L735 246" stroke="#242424" stroke-width="2" stroke-linecap="round" stroke-linejoin="round"/>
<path d="M855 253C855.552 253 856 252.552 856 252C856 251.448 855.552 251 855 251C854.448 251 854 251.448 854 252C854 252.552 854.448 253 855 253Z" stroke="#242424" stroke-width="2" stroke-linecap="round" stroke-linejoin="round"/>
<path d="M862 253C862.552 253 863 252.552 863 252C863 251.448 862.552 251 862 251C861.448 251 861 251.448 861 252C861 252.552 861.448 253 862 253Z" stroke="#242424" stroke-width="2" stroke-linecap="round" stroke-linejoin="round"/>
<path d="M869 253C869.552 253 870 252.552 870 252C870 251.448 869.552 251 869 251C868.448 251 868 251.448 868 252C868 252.552 868.448 253 869 253Z" stroke="#242424" stroke-width="2" stroke-linecap="round" stroke-linejoin="round"/>
<path d="M607.001 369L621 382.999" stroke="#242424" stroke-width="2" stroke-linecap="round" stroke-linejoin="round"/>
<path d="M607 382.999L620.999 369" stroke="#242424" stroke-width="2" stroke-linecap="round" stroke-linejoin="round"/>
<path d="M1362 118H1354C1350 118 1348 120 1348 124V137C1348 137.55 1348.45 138 1349 138H1362C1366 138 1368 136 1368 132V124C1368 120 1366 118 1362 118Z" stroke="#242424" stroke-width="1.5" stroke-linecap="round" stroke-linejoin="round"/>
<path d="M1354.5 128H1361.5" stroke="#242424" stroke-width="1.5" stroke-miterlimit="10" stroke-linecap="round" stroke-linejoin="round"/>
<path d="M1358 131.5V124.5" stroke="#242424" stroke-width="1.5" stroke-miterlimit="10" stroke-linecap="round" stroke-linejoin="round"/>
<path d="M738.53 136.42H732.21C729.05 136.42 728 134.32 728 132.21V123.79C728 120.63 729.05 119.58 732.21 119.58H738.53C741.69 119.58 742.74 120.63 742.74 123.79V132.21C742.74 135.37 741.68 136.42 738.53 136.42Z" stroke="#242424" stroke-width="1.5" stroke-linecap="round" stroke-linejoin="round"/>
<path d="M745.52 133.1L742.74 131.15V124.84L745.52 122.89C746.88 121.94 748 122.52 748 124.19V131.81C748 133.48 746.88 134.06 745.52 133.1Z" stroke="#242424" stroke-width="1.5" stroke-linecap="round" stroke-linejoin="round"/>
<path d="M737.5 127C738.328 127 739 126.328 739 125.5C739 124.672 738.328 124 737.5 124C736.672 124 736 124.672 736 125.5C736 126.328 736.672 127 737.5 127Z" stroke="#242424" stroke-width="1.5" stroke-linecap="round" stroke-linejoin="round"/>
<path d="M112.76 138H123.24C126 138 127.1 136.31 127.23 134.25L127.75 125.99C127.89 123.83 126.17 122 124 122C123.39 122 122.83 121.65 122.55 121.11L121.83 119.66C121.37 118.75 120.17 118 119.15 118H116.86C115.83 118 114.63 118.75 114.17 119.66L113.45 121.11C113.17 121.65 112.61 122 112 122C109.83 122 108.11 123.83 108.25 125.99L108.77 134.25C108.89 136.31 110 138 112.76 138Z" stroke="#242424" stroke-width="1.5" stroke-linecap="round" stroke-linejoin="round"/>
<path d="M116.5 124H119.5" stroke="#242424" stroke-width="1.5" stroke-linecap="round" stroke-linejoin="round"/>
<path d="M118 134C119.79 134 121.25 132.54 121.25 130.75C121.25 128.96 119.79 127.5 118 127.5C116.21 127.5 114.75 128.96 114.75 130.75C114.75 132.54 116.21 134 118 134Z" stroke="#242424" stroke-width="1.5" stroke-linecap="round" stroke-linejoin="round"/>
<path d="M484.76 138H495.24C498 138 499.1 136.31 499.23 134.25L499.75 125.99C499.89 123.83 498.17 122 496 122C495.39 122 494.83 121.65 494.55 121.11L493.83 119.66C493.37 118.75 492.17 118 491.15 118H488.86C487.83 118 486.63 118.75 486.17 119.66L485.45 121.11C485.17 121.65 484.61 122 484 122C481.83 122 480.11 123.83 480.25 125.99L480.77 134.25C480.89 136.31 482 138 484.76 138Z" stroke="#242424" stroke-width="1.5" stroke-linecap="round" stroke-linejoin="round"/>
<path d="M488.5 124H491.5" stroke="#242424" stroke-width="1.5" stroke-linecap="round" stroke-linejoin="round"/>
<path d="M490 134C491.79 134 493.25 132.54 493.25 130.75C493.25 128.96 491.79 127.5 490 127.5C488.21 127.5 486.75 128.96 486.75 130.75C486.75 132.54 488.21 134 490 134Z" stroke="#242424" stroke-width="1.5" stroke-linecap="round" stroke-linejoin="round"/>
<path d="M986 131.5C988.21 131.5 990 129.71 990 127.5V122C990 119.79 988.21 118 986 118C983.79 118 982 119.79 982 122V127.5C982 129.71 983.79 131.5 986 131.5Z" stroke="#242424" stroke-width="1.5" stroke-linecap="round" stroke-linejoin="round"/>
<path d="M978.35 125.65V127.35C978.35 131.57 981.78 135 986 135C990.22 135 993.65 131.57 993.65 127.35V125.65" stroke="#242424" stroke-width="1.5" stroke-linecap="round" stroke-linejoin="round"/>
<path d="M984.61 122.43C985.51 122.1 986.49 122.1 987.39 122.43" stroke="#242424" stroke-width="1.5" stroke-linecap="round" stroke-linejoin="round"/>
<path d="M985.2 124.55C985.73 124.41 986.28 124.41 986.81 124.55" stroke="#242424" stroke-width="1.5" stroke-linecap="round" stroke-linejoin="round"/>
<path d="M986 135V138" stroke="#242424" stroke-width="1.5" stroke-linecap="round" stroke-linejoin="round"/>
<path d="M118.33 376.15L115.86 378.62C114.49 379.99 114.49 382.2 115.86 383.57C117.23 384.94 119.44 384.94 120.81 383.57L124.7 379.68C127.43 376.95 127.43 372.51 124.7 369.78C121.97 367.05 117.53 367.05 114.8 369.78L110.56 374.02C108.22 376.36 108.22 380.16 110.56 382.51" stroke="#242424" stroke-width="1.5" stroke-linecap="round" stroke-linejoin="round"/>
<path d="M252 128C252 133.52 247.52 138 242 138C236.48 138 232 133.52 232 128C232 122.48 236.48 118 242 118C247.52 118 252 122.48 252 128Z" stroke="#242424" stroke-width="1.5" stroke-linecap="round" stroke-linejoin="round"/>
<path d="M245.71 131.18L242.61 129.33C242.07 129.01 241.63 128.24 241.63 127.61V123.51" stroke="#242424" stroke-width="1.5" stroke-linecap="round" stroke-linejoin="round"/>
<path d="M487 386H493C498 386 500 384 500 379V373C500 368 498 366 493 366H487C482 366 480 368 480 373V379C480 384 482 386 487 386Z" stroke="#242424" stroke-width="1.5" stroke-linecap="round" stroke-linejoin="round"/>
<path d="M493.75 373H486.25" stroke="#242424" stroke-width="1.5" stroke-linecap="round" stroke-linejoin="round"/>
<path d="M493.75 379H486.25" stroke="#242424" stroke-width="1.5" stroke-linecap="round" stroke-linejoin="round"/>
<path d="M981.4 370.32L989.89 367.49C993.7 366.22 995.77 368.3 994.51 372.11L991.68 380.6C989.78 386.31 986.66 386.31 984.76 380.6L983.92 378.08L981.4 377.24C975.69 375.34 975.69 372.23 981.4 370.32Z" stroke="#242424" stroke-width="1.5" stroke-linecap="round" stroke-linejoin="round"/>
<path d="M984.11 377.65L987.69 374.06" stroke="#242424" stroke-width="1.5" stroke-linecap="round" stroke-linejoin="round"/>
<path d="M1105.4 370.32L1113.89 367.49C1117.7 366.22 1119.77 368.3 1118.51 372.11L1115.68 380.6C1113.78 386.31 1110.66 386.31 1108.76 380.6L1107.92 378.08L1105.4 377.24C1099.69 375.34 1099.69 372.23 1105.4 370.32Z" stroke="#242424" stroke-width="1.5" stroke-linecap="round" stroke-linejoin="round"/>
<path d="M1108.11 377.65L1111.69 374.06" stroke="#242424" stroke-width="1.5" stroke-linecap="round" stroke-linejoin="round"/>
<path d="M487 262H493C498 262 500 260 500 255V249C500 244 498 242 493 242H487C482 242 480 244 480 249V255C480 260 482 262 487 262Z" stroke="#242424" stroke-width="1.5" stroke-linecap="round" stroke-linejoin="round"/>
<path d="M487 250C488.105 250 489 249.105 489 248C489 246.895 488.105 246 487 246C485.895 246 485 246.895 485 248C485 249.105 485.895 250 487 250Z" stroke="#242424" stroke-width="1.5" stroke-linecap="round" stroke-linejoin="round"/>
<path d="M480.67 258.95L485.6 255.64C486.39 255.11 487.53 255.17 488.24 255.78L488.57 256.07C489.35 256.74 490.61 256.74 491.39 256.07L495.55 252.5C496.33 251.83 497.59 251.83 498.37 252.5L500 253.9" stroke="#242424" stroke-width="1.5" stroke-linecap="round" stroke-linejoin="round"/>
<path d="M983.18 258.04V260.48C983.18 262.16 984.09 262.5 985.2 261.24L992.77 252.64C993.7 251.59 993.31 250.72 991.9 250.72H990.97" stroke="#242424" stroke-width="1.5" stroke-miterlimit="10" stroke-linecap="round" stroke-linejoin="round"/>
<path d="M988.82 248.84V243.52C988.82 241.84 987.91 241.5 986.8 242.76L979.23 251.36C978.3 252.41 978.69 253.28 980.1 253.28H983.19V254.46" stroke="#242424" stroke-width="1.5" stroke-miterlimit="10" stroke-linecap="round" stroke-linejoin="round"/>
<path d="M996 242L976 262" stroke="#242424" stroke-width="1.5" stroke-linecap="round" stroke-linejoin="round"/>
<path d="M1244 252C1244 257.52 1239.52 262 1234 262C1228.48 262 1225.11 256.44 1225.11 256.44M1225.11 256.44H1229.63M1225.11 256.44V261.44M1224 252C1224 246.48 1228.44 242 1234 242C1240.67 242 1244 247.56 1244 247.56M1244 247.56V242.56M1244 247.56H1239.56" stroke="#242424" stroke-width="1.5" stroke-linecap="round" stroke-linejoin="round"/>
<path fill-rule="evenodd" clip-rule="evenodd" d="M367.357 122.451C367.307 121.964 367.254 121.46 367.125 120.956C366.774 119.752 365.801 119 364.758 119C364.176 118.998 363.44 119.356 363.022 119.719L359.563 122.617H357.752C356.419 122.617 355.348 123.644 355.145 125.127C354.973 126.551 354.931 129.238 355.145 130.804C355.331 132.371 356.354 133.383 357.752 133.383H359.563L363.089 136.324C363.451 136.638 364.09 136.999 364.677 136.999C364.715 137 364.748 137 364.782 137C365.845 137 366.781 136.221 367.133 135.019C367.265 134.511 367.311 134.035 367.356 133.575L367.357 133.567L367.404 133.108C367.585 131.621 367.585 124.369 367.404 122.893L367.357 122.451ZM371.407 122.495C371.118 122.069 370.547 121.963 370.128 122.258C369.714 122.556 369.611 123.142 369.9 123.566C370.702 124.748 371.143 126.322 371.143 128C371.143 129.677 370.702 131.252 369.9 132.434C369.611 132.858 369.714 133.444 370.129 133.742C370.285 133.851 370.466 133.909 370.653 133.909C370.954 133.909 371.235 133.758 371.407 133.505C372.42 132.013 372.978 130.058 372.978 128C372.978 125.942 372.42 123.987 371.407 122.495ZM373.29 119.221C373.707 118.925 374.281 119.033 374.567 119.457C376.136 121.767 377 124.802 377 128C377 131.2 376.136 134.234 374.567 136.544C374.396 136.796 374.114 136.947 373.813 136.947C373.627 136.947 373.446 136.889 373.291 136.78C372.876 136.482 372.773 135.897 373.06 135.472C374.417 133.473 375.165 130.819 375.165 128C375.165 125.182 374.417 122.528 373.06 120.529C372.773 120.105 372.876 119.518 373.29 119.221Z" fill="#242424"/>
<path fill-rule="evenodd" clip-rule="evenodd" d="M1228.11 120.5H1233.91C1236.33 120.5 1238.02 122.169 1238.02 124.561V131.439C1238.02 133.831 1236.33 135.5 1233.91 135.5H1228.11C1225.69 135.5 1224 133.831 1224 131.439V124.561C1224 122.169 1225.69 120.5 1228.11 120.5ZM1241.96 122.879C1242.4 122.656 1242.91 122.679 1243.33 122.943C1243.75 123.206 1244 123.663 1244 124.162V131.838C1244 132.339 1243.75 132.795 1243.33 133.058C1243.1 133.201 1242.85 133.274 1242.59 133.274C1242.37 133.274 1242.16 133.223 1241.96 133.121L1240.48 132.373C1239.93 132.095 1239.59 131.537 1239.59 130.917V125.083C1239.59 124.462 1239.93 123.903 1240.48 123.627L1241.96 122.879Z" fill="#242424"/>
<path fill-rule="evenodd" clip-rule="evenodd" d="M738.175 379.217H737.825C735.422 379.217 733.474 377.293 733.474 374.92V370.297C733.474 367.924 735.422 366 737.825 366H738.175C740.578 366 742.527 367.924 742.527 370.297V374.92C742.527 377.293 740.578 379.217 738.175 379.217ZM744.563 374.783C744.563 374.254 744.997 373.826 745.531 373.826C746.066 373.826 746.5 374.254 746.5 374.783C746.5 379.087 743.201 382.64 738.969 383.118V385.043C738.969 385.571 738.535 386 738 386C737.465 386 737.032 385.571 737.032 385.043V383.118C732.799 382.64 729.5 379.087 729.5 374.783C729.5 374.254 729.934 373.826 730.469 373.826C731.003 373.826 731.437 374.254 731.437 374.783C731.437 378.356 734.381 381.263 738 381.263C741.619 381.263 744.563 378.356 744.563 374.783Z" fill="#242424"/>
<path d="M373.337 245.918L375.741 243.505C375.908 243.337 376 243.114 376 242.878C376 242.642 375.908 242.419 375.741 242.251C375.407 241.916 374.826 241.916 374.492 242.251L372.089 244.664L369.684 242.251C369.35 241.916 368.77 241.916 368.435 242.251C368.269 242.419 368.177 242.642 368.177 242.878C368.177 243.114 368.269 243.337 368.435 243.505L370.839 245.918L368.435 248.33C368.269 248.498 368.177 248.721 368.177 248.957C368.177 249.194 368.269 249.416 368.435 249.585C368.77 249.919 369.35 249.919 369.684 249.585L372.089 247.171L374.492 249.585C374.66 249.752 374.881 249.844 375.117 249.844C375.353 249.844 375.574 249.752 375.741 249.585C375.908 249.416 376 249.194 376 248.957C376 248.721 375.908 248.498 375.741 248.33L373.337 245.918Z" fill="#242424"/>
<path fill-rule="evenodd" clip-rule="evenodd" d="M365.032 252.972C369.021 256.96 369.926 252.347 372.466 254.885C374.914 257.333 376.322 257.823 373.219 260.925C372.831 261.237 370.362 264.994 361.685 256.32C353.007 247.644 356.762 245.172 357.074 244.784C360.184 241.674 360.666 243.089 363.114 245.537C365.654 248.076 361.043 248.984 365.032 252.972Z" fill="#242424"/>
<path d="M1487 261H1477C1473 261 1472 260 1472 256V248C1472 244 1473 243 1477 243H1487C1491 243 1492 244 1492 248V256C1492 260 1491 261 1487 261Z" stroke="#242424" stroke-width="1.5" stroke-linecap="round" stroke-linejoin="round"/>
<path d="M1484 248H1489" stroke="#242424" stroke-width="1.5" stroke-linecap="round" stroke-linejoin="round"/>
<path d="M1485 252H1489" stroke="#242424" stroke-width="1.5" stroke-linecap="round" stroke-linejoin="round"/>
<path d="M1487 256H1489" stroke="#242424" stroke-width="1.5" stroke-linecap="round" stroke-linejoin="round"/>
<path d="M1478.5 251.29C1479.5 251.29 1480.31 250.48 1480.31 249.48C1480.31 248.48 1479.5 247.67 1478.5 247.67C1477.5 247.67 1476.69 248.48 1476.69 249.48C1476.69 250.48 1477.5 251.29 1478.5 251.29Z" stroke="#242424" stroke-width="1.5" stroke-linecap="round" stroke-linejoin="round"/>
<path d="M1482 256.33C1481.86 254.88 1480.71 253.74 1479.26 253.61C1478.76 253.56 1478.25 253.56 1477.74 253.61C1476.29 253.75 1475.14 254.88 1475 256.33" stroke="#242424" stroke-width="1.5" stroke-linecap="round" stroke-linejoin="round"/>
<path d="M1477 376C1473 376 1473 377.79 1473 380V381C1473 383.76 1473 386 1478 386H1486C1490 386 1491 383.76 1491 381V380C1491 377.79 1491 376 1487 376C1486 376 1485.72 376.21 1485.2 376.6L1484.18 377.68C1483 378.94 1481 378.94 1479.81 377.68L1478.8 376.6C1478.28 376.21 1478 376 1477 376Z" stroke="#242424" stroke-width="1.5" stroke-miterlimit="10" stroke-linecap="round" stroke-linejoin="round"/>
<path d="M1489 376V370C1489 367.79 1489 366 1485 366H1479C1475 366 1475 367.79 1475 370V376" stroke="#242424" stroke-width="1.5" stroke-miterlimit="10" stroke-linecap="round" stroke-linejoin="round"/>
<path d="M1480.55 373.23H1483.88" stroke="#242424" stroke-width="1.5" stroke-linecap="round" stroke-linejoin="round"/>
<path d="M1479.72 370.23H1484.72" stroke="#242424" stroke-width="1.5" stroke-linecap="round" stroke-linejoin="round"/>
<path d="M1359 373H1353" stroke="#242424" stroke-width="1.5" stroke-linecap="round" stroke-linejoin="round"/>
<path d="M1368 374.97V377.03C1368 377.58 1367.56 378.03 1367 378.05H1365.04C1363.96 378.05 1362.97 377.26 1362.88 376.18C1362.82 375.55 1363.06 374.96 1363.48 374.55C1363.85 374.17 1364.36 373.95 1364.92 373.95H1367C1367.56 373.97 1368 374.42 1368 374.97Z" stroke="#242424" stroke-width="1.5" stroke-linecap="round" stroke-linejoin="round"/>
<path d="M1363.48 374.55C1363.06 374.96 1362.82 375.55 1362.88 376.18C1362.97 377.26 1363.96 378.05 1365.04 378.05H1367V379.5C1367 382.5 1365 384.5 1362 384.5H1353C1350 384.5 1348 382.5 1348 379.5V372.5C1348 369.78 1349.64 367.88 1352.19 367.56C1352.45 367.52 1352.72 367.5 1353 367.5H1362C1362.26 367.5 1362.51 367.51 1362.75 367.55C1365.33 367.85 1367 369.76 1367 372.5V373.95H1364.92C1364.36 373.95 1363.85 374.17 1363.48 374.55Z" stroke="#242424" stroke-width="1.5" stroke-linecap="round" stroke-linejoin="round"/>
<path d="M366 503C367.657 503 369 501.657 369 500C369 498.343 367.657 497 366 497C364.343 497 363 498.343 363 500C363 501.657 364.343 503 366 503Z" stroke="#242424" stroke-width="1.5" stroke-miterlimit="10" stroke-linecap="round" stroke-linejoin="round"/>
<path d="M356 500.88V499.12C356 498.08 356.85 497.22 357.9 497.22C359.71 497.22 360.45 495.94 359.54 494.37C359.02 493.47 359.33 492.3 360.24 491.78L361.97 490.79C362.76 490.32 363.78 490.6 364.25 491.39L364.36 491.58C365.26 493.15 366.74 493.15 367.65 491.58L367.76 491.39C368.23 490.6 369.25 490.32 370.04 490.79L371.77 491.78C372.68 492.3 372.99 493.47 372.47 494.37C371.56 495.94 372.3 497.22 374.11 497.22C375.15 497.22 376.01 498.07 376.01 499.12V500.88C376.01 501.92 375.16 502.78 374.11 502.78C372.3 502.78 371.56 504.06 372.47 505.63C372.99 506.54 372.68 507.7 371.77 508.22L370.04 509.21C369.25 509.68 368.23 509.4 367.76 508.61L367.65 508.42C366.75 506.85 365.27 506.85 364.36 508.42L364.25 508.61C363.78 509.4 362.76 509.68 361.97 509.21L360.24 508.22C359.33 507.7 359.02 506.53 359.54 505.63C360.45 504.06 359.71 502.78 357.9 502.78C356.85 502.78 356 501.92 356 500.88Z" stroke="#242424" stroke-width="1.5" stroke-miterlimit="10" stroke-linecap="round" stroke-linejoin="round"/>
<path d="M862.02 490.91C858.71 490.91 856.02 493.6 856.02 496.91V499.8C856.02 500.41 855.76 501.34 855.45 501.86L854.3 503.77C853.59 504.95 854.08 506.26 855.38 506.7C859.69 508.14 864.34 508.14 868.65 506.7C869.86 506.3 870.39 504.87 869.73 503.77L868.58 501.86C868.28 501.34 868.02 500.41 868.02 499.8V496.91C868.02 493.61 865.32 490.91 862.02 490.91Z" stroke="#242424" stroke-width="1.5" stroke-miterlimit="10" stroke-linecap="round"/>
<path d="M863.87 491.2C863.56 491.11 863.24 491.04 862.91 491C861.95 490.88 861.03 490.95 860.17 491.2C860.46 490.46 861.18 489.94 862.02 489.94C862.86 489.94 863.58 490.46 863.87 491.2Z" stroke="#242424" stroke-width="1.5" stroke-miterlimit="10" stroke-linecap="round" stroke-linejoin="round"/>
<path d="M865.02 507.06C865.02 508.71 863.67 510.06 862.02 510.06C861.2 510.06 860.44 509.72 859.9 509.18C859.36 508.64 859.02 507.88 859.02 507.06" stroke="#242424" stroke-width="1.5" stroke-miterlimit="10"/>
<path d="M743 506.43H739L734.55 509.39C733.89 509.83 733 509.36 733 508.56V506.43C730 506.43 728 504.43 728 501.43V495.43C728 492.43 730 490.43 733 490.43H743C746 490.43 748 492.43 748 495.43V501.43C748 504.43 746 506.43 743 506.43Z" stroke="#242424" stroke-width="1.5" stroke-miterlimit="10" stroke-linecap="round" stroke-linejoin="round"/>
<path d="M738 499.36V499.15C738 498.47 738.42 498.11 738.84 497.82C739.25 497.54 739.66 497.18 739.66 496.52C739.66 495.6 738.92 494.86 738 494.86C737.08 494.86 736.34 495.6 736.34 496.52" stroke="#242424" stroke-width="1.5" stroke-linecap="round" stroke-linejoin="round"/>
<path d="M737.995 501.75H738.004" stroke="#242424" stroke-width="1.5" stroke-linecap="round" stroke-linejoin="round"/>
<path d="M980 498V496C980 492.69 981 490 986 490C991 490 992 492.69 992 496V498" stroke="#242424" stroke-width="1.5" stroke-linecap="round" stroke-linejoin="round"/>
<path d="M986 506.5C987.381 506.5 988.5 505.381 988.5 504C988.5 502.619 987.381 501.5 986 501.5C984.619 501.5 983.5 502.619 983.5 504C983.5 505.381 984.619 506.5 986 506.5Z" stroke="#242424" stroke-width="1.5" stroke-linecap="round" stroke-linejoin="round"/>
<path d="M991 510H981C977 510 976 509 976 505V503C976 499 977 498 981 498H991C995 498 996 499 996 503V505C996 509 995 510 991 510Z" stroke="#242424" stroke-width="1.5" stroke-linecap="round" stroke-linejoin="round"/>
<path d="M494.99 496.96H485.01" stroke="#242424" stroke-width="1.5" stroke-linecap="round" stroke-linejoin="round"/>
<path d="M490 495.28V496.96" stroke="#242424" stroke-width="1.5" stroke-linecap="round" stroke-linejoin="round"/>
<path d="M492.5 496.94C492.5 501.24 489.14 504.72 485 504.72" stroke="#242424" stroke-width="1.5" stroke-linecap="round" stroke-linejoin="round"/>
<path d="M495 504.72C493.2 504.72 491.6 503.76 490.45 502.25" stroke="#242424" stroke-width="1.5" stroke-linecap="round" stroke-linejoin="round"/>
<path d="M487 510H493C498 510 500 508 500 503V497C500 492 498 490 493 490H487C482 490 480 492 480 497V503C480 508 482 510 487 510Z" stroke="#242424" stroke-width="1.5" stroke-linecap="round" stroke-linejoin="round"/>
<path d="M619.44 502.62L622 500.06L619.44 497.5" stroke="#242424" stroke-width="1.5" stroke-miterlimit="10" stroke-linecap="round" stroke-linejoin="round"/>
<path d="M611.76 500.06H621.93" stroke="#242424" stroke-width="1.5" stroke-miterlimit="10" stroke-linecap="round" stroke-linejoin="round"/>
<path d="M613.76 508C609.34 508 605.76 505 605.76 500C605.76 495 609.34 492 613.76 492" stroke="#242424" stroke-width="1.5" stroke-miterlimit="10" stroke-linecap="round" stroke-linejoin="round"/>
</svg>
